<svg width="216" height="245" viewBox="0 0 216 245" fill="none" xmlns="http://www.w3.org/2000/svg">
<g filter="url(#filter0_d_128_247)">
<path d="M94.1469 56.0664C94.1469 56.0664 28.7927 76.7024 23.6975 84.6675C18.6023 92.6326 9.82159 107.386 9.02335 138.977C8.37796 164.318 20.8272 229.486 82.0204 231.646C144.504 233.863 167.772 187.114 178.931 158.166C188.985 132.053 188.815 102.063 195.184 88.2932C201.553 74.5231 207.294 62.5851 206.988 47.0213C206.683 31.4576 201.57 18.0538 192.637 11.5352C183.703 5.01655 176.061 6.09657 172.239 5.01655C168.418 3.93654 94.1469 56.0664 94.1469 56.0664Z" fill="#AFB42A"/>
<path d="M102.403 32.4545C75.4549 45.2142 39.6422 57.2359 22.5379 84.95C7.08824 109.964 1.93837 141.077 22.8587 177.531C41.9554 210.819 92.8632 225.016 130.938 193.573C165.806 164.771 168.963 122.491 179.432 94.4081C189.9 66.325 211.918 29.4248 185.46 11.2854C157.245 -8.01932 123.695 22.3749 102.403 32.4545Z" fill="#AFB42A"/>
<path d="M180.6 19.8096C167.647 11.6578 151.126 15.2685 132.866 25.058C114.605 34.8476 100.508 42.1805 94.1079 44.6186C87.691 47.0567 33.1811 68.832 22.6683 97.7168C14.0157 121.465 16.2684 152.564 39.0008 175.27C61.7331 197.976 119.093 196.58 141.194 162.335C163.295 128.091 164.25 100.508 169.063 88.2808C173.876 76.0532 184.355 58.149 187.324 48.4525C190.84 36.9321 188.928 25.058 180.6 19.8096Z" fill="#FFF69D"/>
<path d="M120.676 84.9264C111.046 71.3356 74.3548 75.6244 61.7291 97.0875C49.1035 118.551 54.3589 135.992 60.5275 145.389C68.042 156.845 88.5026 167.214 107.137 151.832C125.771 136.449 131.234 99.8324 120.676 84.9264Z" fill="#855C52"/>
</g>
<defs>
<filter id="filter0_d_128_247" x="0.2" y="0.2" width="215.6" height="244.322" filterUnits="userSpaceOnUse" color-interpolation-filters="sRGB">
<feFlood flood-opacity="0" result="BackgroundImageFix"/>
<feColorMatrix in="SourceAlpha" type="matrix" values="0 0 0 0 0 0 0 0 0 0 0 0 0 0 0 0 0 0 127 0" result="hardAlpha"/>
<feOffset dy="4"/>
<feGaussianBlur stdDeviation="4.4"/>
<feComposite in2="hardAlpha" operator="out"/>
<feColorMatrix type="matrix" values="0 0 0 0 0 0 0 0 0 0 0 0 0 0 0 0 0 0 0.25 0"/>
<feBlend mode="normal" in2="BackgroundImageFix" result="effect1_dropShadow_128_247"/>
<feBlend mode="normal" in="SourceGraphic" in2="effect1_dropShadow_128_247" result="shape"/>
</filter>
</defs>
</svg>
