<svg width="234" height="245" viewBox="0 0 234 245" fill="none" xmlns="http://www.w3.org/2000/svg">
<g filter="url(#filter0_d_128_242)">
<path d="M166.301 147.754C166.301 147.754 137.566 210.984 130.041 214.753C122.516 218.522 108.694 224.83 82.2875 219.882C61.1036 215.917 9.12796 191.259 18.1728 128.134C27.3981 63.6752 70.3882 48.3563 96.433 42.2018C119.925 36.6615 144.829 42.3101 157.406 38.2947C169.983 34.2794 180.925 30.5738 193.811 33.7283C206.697 36.8828 216.935 44.5702 220.773 54.9182C224.61 65.2662 222.358 72.9039 222.579 77.0184C222.8 81.133 166.301 147.754 166.301 147.754Z" fill="#AFB42A"/>
<path d="M187.395 143.601C172.012 168.897 155.672 203.415 129.6 215.89C106.066 227.162 79.2859 226.761 52.6839 198.661C28.3908 173.008 25.6059 118.229 58.4933 84.9368C88.6163 54.4511 124.328 58.9323 149.531 53.3271C174.735 47.7219 209.315 31.8868 219.709 62.3214C230.761 94.7689 199.547 123.614 187.395 143.601Z" fill="#AFB42A"/>
<path d="M211.76 65.7468C216.243 80.5137 210.314 96.7899 198.94 113.723C187.566 130.656 178.972 143.768 175.811 149.884C172.647 156.017 144.886 207.921 119.008 213.426C97.7308 217.96 72.2731 209.974 57.4222 182.526C42.5714 155.077 53.8935 96.5307 86.2806 80.1257C118.668 63.7207 141.769 67.776 152.788 65.0744C163.807 62.3729 180.549 54.8992 189.137 53.6251C199.338 52.1241 208.872 56.2511 211.76 65.7468Z" fill="#FFF69D"/>
<path d="M147.005 115.292C156.599 127.644 146.533 164.474 126.452 173.499C106.37 182.524 92.8003 173.953 86.0801 165.914C77.8867 156.119 72.8901 133.252 88.9805 116.957C105.071 100.663 136.483 101.746 147.005 115.292Z" fill="#DCD05D"/>
</g>
<defs>
<filter id="filter0_d_128_242" x="8.32598" y="27.7437" width="223.51" height="207.86" filterUnits="userSpaceOnUse" color-interpolation-filters="sRGB">
<feFlood flood-opacity="0" result="BackgroundImageFix"/>
<feColorMatrix in="SourceAlpha" type="matrix" values="0 0 0 0 0 0 0 0 0 0 0 0 0 0 0 0 0 0 127 0" result="hardAlpha"/>
<feOffset dy="4"/>
<feGaussianBlur stdDeviation="4.4"/>
<feComposite in2="hardAlpha" operator="out"/>
<feColorMatrix type="matrix" values="0 0 0 0 0 0 0 0 0 0 0 0 0 0 0 0 0 0 0.25 0"/>
<feBlend mode="normal" in2="BackgroundImageFix" result="effect1_dropShadow_128_242"/>
<feBlend mode="normal" in="SourceGraphic" in2="effect1_dropShadow_128_242" result="shape"/>
</filter>
</defs>
</svg>
