<svg width="270" height="72" viewBox="0 0 270 72" fill="none" xmlns="http://www.w3.org/2000/svg">
<g filter="url(#filter0_d_249_713)">
<path d="M82.592 25.76L75.392 43.04C75.264 43.3813 75.072 43.648 74.816 43.84C74.56 44.032 74.272 44.128 73.952 44.128C73.4827 44.128 73.1307 44 72.896 43.744C72.6613 43.4667 72.5333 43.1253 72.512 42.72C72.512 42.5707 72.544 42.4 72.608 42.208L80.736 22.56C80.8853 22.1973 81.0987 21.92 81.376 21.728C81.6747 21.536 81.9947 21.4507 82.336 21.472C82.656 21.472 82.9547 21.568 83.232 21.76C83.5093 21.952 83.712 22.2187 83.84 22.56L91.872 41.92C91.9573 42.1333 92 42.3467 92 42.56C92 43.0293 91.84 43.4133 91.52 43.712C91.2213 43.9893 90.88 44.128 90.496 44.128C90.176 44.128 89.8773 44.032 89.6 43.84C89.344 43.6267 89.152 43.36 89.024 43.04L81.76 25.856L82.592 25.76ZM76.672 38.496L78.112 35.424H87.168L87.712 38.496H76.672ZM103.251 26.784C104.745 26.784 106.067 27.1573 107.219 27.904C108.393 28.6507 109.321 29.6853 110.003 31.008C110.686 32.3093 111.027 33.8133 111.027 35.52C111.027 37.2267 110.686 38.7413 110.003 40.064C109.321 41.3867 108.403 42.432 107.251 43.2C106.099 43.9467 104.798 44.32 103.347 44.32C102.537 44.32 101.769 44.192 101.043 43.936C100.318 43.6587 99.6779 43.3173 99.1233 42.912C98.5686 42.4853 98.1099 42.0373 97.7473 41.568C97.4059 41.0987 97.1926 40.6613 97.1073 40.256L97.9713 39.84V42.624C97.9713 43.072 97.8113 43.456 97.4913 43.776C97.1926 44.0747 96.8193 44.224 96.3713 44.224C95.9019 44.224 95.5179 44.0747 95.2193 43.776C94.9206 43.4773 94.7713 43.0933 94.7713 42.624V21.952C94.7713 21.4827 94.9206 21.0987 95.2193 20.8C95.5179 20.48 95.9019 20.32 96.3713 20.32C96.8193 20.32 97.1926 20.48 97.4913 20.8C97.8113 21.0987 97.9713 21.4827 97.9713 21.952V30.944L97.4593 30.656C97.5233 30.2507 97.7259 29.8347 98.0673 29.408C98.4086 28.96 98.8353 28.5333 99.3473 28.128C99.8806 27.7227 100.478 27.4027 101.139 27.168C101.822 26.912 102.526 26.784 103.251 26.784ZM102.899 29.728C101.875 29.728 100.979 29.984 100.211 30.496C99.4646 31.008 98.8779 31.7013 98.4513 32.576C98.0246 33.4293 97.8113 34.4107 97.8113 35.52C97.8113 36.6293 98.0246 37.632 98.4513 38.528C98.8779 39.4027 99.4646 40.096 100.211 40.608C100.979 41.12 101.875 41.376 102.899 41.376C103.902 41.376 104.777 41.12 105.523 40.608C106.27 40.096 106.857 39.392 107.283 38.496C107.731 37.6 107.955 36.608 107.955 35.52C107.955 34.4107 107.731 33.4293 107.283 32.576C106.857 31.7013 106.27 31.008 105.523 30.496C104.777 29.984 103.902 29.728 102.899 29.728ZM130.774 35.584C130.774 37.2907 130.401 38.8053 129.654 40.128C128.908 41.4293 127.894 42.4533 126.614 43.2C125.334 43.9467 123.894 44.32 122.294 44.32C120.694 44.32 119.254 43.9467 117.974 43.2C116.694 42.4533 115.67 41.4293 114.902 40.128C114.156 38.8053 113.782 37.2907 113.782 35.584C113.782 33.856 114.156 32.3413 114.902 31.04C115.67 29.7173 116.694 28.6827 117.974 27.936C119.254 27.168 120.694 26.784 122.294 26.784C123.894 26.784 125.334 27.168 126.614 27.936C127.894 28.6827 128.908 29.7173 129.654 31.04C130.401 32.3413 130.774 33.856 130.774 35.584ZM127.574 35.584C127.574 34.4107 127.34 33.3973 126.87 32.544C126.401 31.6693 125.761 30.9867 124.95 30.496C124.161 29.984 123.276 29.728 122.294 29.728C121.313 29.728 120.417 29.984 119.606 30.496C118.796 30.9867 118.156 31.6693 117.686 32.544C117.217 33.3973 116.982 34.4107 116.982 35.584C116.982 36.7147 117.217 37.7173 117.686 38.592C118.156 39.4667 118.796 40.1493 119.606 40.64C120.417 41.1307 121.313 41.376 122.294 41.376C123.276 41.376 124.161 41.1307 124.95 40.64C125.761 40.1493 126.401 39.4667 126.87 38.592C127.34 37.7173 127.574 36.7147 127.574 35.584ZM141.852 26.784C143.004 26.784 144.028 26.912 144.924 27.168C145.82 27.4027 146.514 27.744 147.004 28.192C147.516 28.6187 147.772 29.12 147.772 29.696C147.772 30.0587 147.666 30.4 147.452 30.72C147.239 31.0187 146.919 31.168 146.492 31.168C146.194 31.168 145.938 31.1147 145.724 31.008C145.532 30.9013 145.351 30.7733 145.18 30.624C145.01 30.4747 144.796 30.3253 144.54 30.176C144.306 30.048 143.954 29.9413 143.484 29.856C143.036 29.7707 142.631 29.728 142.268 29.728C141.138 29.728 140.156 29.984 139.324 30.496C138.514 31.008 137.874 31.7013 137.404 32.576C136.956 33.4507 136.732 34.4427 136.732 35.552C136.732 36.6613 136.956 37.6533 137.404 38.528C137.874 39.4027 138.503 40.096 139.292 40.608C140.103 41.12 141.042 41.376 142.108 41.376C142.748 41.376 143.271 41.3333 143.676 41.248C144.082 41.1413 144.434 41.0133 144.732 40.864C145.052 40.672 145.319 40.48 145.532 40.288C145.767 40.0747 146.087 39.968 146.492 39.968C146.962 39.968 147.314 40.1173 147.548 40.416C147.804 40.6933 147.932 41.0453 147.932 41.472C147.932 41.9413 147.644 42.4 147.068 42.848C146.514 43.2747 145.767 43.6267 144.828 43.904C143.89 44.1813 142.855 44.32 141.724 44.32C140.06 44.32 138.61 43.936 137.372 43.168C136.156 42.4 135.207 41.3547 134.524 40.032C133.863 38.7093 133.532 37.216 133.532 35.552C133.532 33.8667 133.884 32.3733 134.588 31.072C135.292 29.7493 136.274 28.704 137.532 27.936C138.791 27.168 140.231 26.784 141.852 26.784ZM164.782 26.912C165.251 26.912 165.635 27.072 165.934 27.392C166.233 27.6907 166.382 28.0747 166.382 28.544V42.368C166.382 42.8373 166.233 43.232 165.934 43.552C165.635 43.8507 165.251 44 164.782 44C164.334 44 163.95 43.8507 163.63 43.552C163.331 43.232 163.182 42.8373 163.182 42.368V40.064L163.854 40.16C163.854 40.544 163.694 40.9707 163.374 41.44C163.075 41.9093 162.659 42.368 162.126 42.816C161.593 43.2427 160.963 43.6053 160.238 43.904C159.513 44.1813 158.734 44.32 157.902 44.32C156.43 44.32 155.107 43.9467 153.934 43.2C152.761 42.432 151.833 41.3867 151.15 40.064C150.467 38.7413 150.126 37.2373 150.126 35.552C150.126 33.824 150.467 32.3093 151.15 31.008C151.833 29.6853 152.75 28.6507 153.902 27.904C155.075 27.1573 156.377 26.784 157.806 26.784C158.723 26.784 159.566 26.9333 160.334 27.232C161.123 27.5307 161.806 27.9147 162.382 28.384C162.958 28.8533 163.395 29.3547 163.694 29.888C164.014 30.4 164.174 30.8907 164.174 31.36L163.182 31.456V28.544C163.182 28.096 163.331 27.712 163.63 27.392C163.95 27.072 164.334 26.912 164.782 26.912ZM158.254 41.376C159.257 41.376 160.142 41.12 160.91 40.608C161.678 40.096 162.275 39.4027 162.702 38.528C163.129 37.632 163.342 36.64 163.342 35.552C163.342 34.4427 163.129 33.4507 162.702 32.576C162.275 31.7013 161.678 31.008 160.91 30.496C160.142 29.984 159.257 29.728 158.254 29.728C157.273 29.728 156.398 29.984 155.63 30.496C154.883 31.008 154.286 31.7013 153.838 32.576C153.411 33.4507 153.198 34.4427 153.198 35.552C153.198 36.64 153.411 37.632 153.838 38.528C154.286 39.4027 154.883 40.096 155.63 40.608C156.398 41.12 157.273 41.376 158.254 41.376ZM184.657 20.32C185.126 20.32 185.51 20.4693 185.809 20.768C186.108 21.0667 186.257 21.4613 186.257 21.952V42.368C186.257 42.8373 186.108 43.232 185.809 43.552C185.51 43.8507 185.126 44 184.657 44C184.209 44 183.825 43.8507 183.505 43.552C183.206 43.232 183.057 42.8373 183.057 42.368V40.064L183.729 40.096C183.729 40.48 183.569 40.9173 183.249 41.408C182.95 41.8773 182.534 42.336 182.001 42.784C181.468 43.232 180.838 43.6053 180.113 43.904C179.388 44.1813 178.609 44.32 177.777 44.32C176.305 44.32 174.982 43.9467 173.809 43.2C172.636 42.432 171.708 41.3973 171.025 40.096C170.342 38.7733 170.001 37.2587 170.001 35.552C170.001 33.8453 170.342 32.3413 171.025 31.04C171.708 29.7173 172.625 28.6827 173.777 27.936C174.95 27.168 176.252 26.784 177.681 26.784C178.577 26.784 179.409 26.9333 180.177 27.232C180.966 27.5307 181.649 27.9147 182.225 28.384C182.801 28.8533 183.249 29.3547 183.569 29.888C183.889 30.4 184.049 30.8907 184.049 31.36L183.057 31.456V21.952C183.057 21.4827 183.206 21.0987 183.505 20.8C183.825 20.48 184.209 20.32 184.657 20.32ZM178.129 41.376C179.153 41.376 180.038 41.12 180.785 40.608C181.553 40.096 182.15 39.4027 182.577 38.528C183.004 37.6533 183.217 36.6613 183.217 35.552C183.217 34.4427 183.004 33.4507 182.577 32.576C182.15 31.7013 181.553 31.008 180.785 30.496C180.017 29.984 179.132 29.728 178.129 29.728C177.148 29.728 176.273 29.984 175.505 30.496C174.758 31.008 174.161 31.7013 173.713 32.576C173.286 33.4507 173.073 34.4427 173.073 35.552C173.073 36.6613 173.286 37.6533 173.713 38.528C174.161 39.4027 174.758 40.096 175.505 40.608C176.273 41.12 177.148 41.376 178.129 41.376ZM206.868 35.584C206.868 37.2907 206.495 38.8053 205.748 40.128C205.001 41.4293 203.988 42.4533 202.708 43.2C201.428 43.9467 199.988 44.32 198.388 44.32C196.788 44.32 195.348 43.9467 194.068 43.2C192.788 42.4533 191.764 41.4293 190.996 40.128C190.249 38.8053 189.876 37.2907 189.876 35.584C189.876 33.856 190.249 32.3413 190.996 31.04C191.764 29.7173 192.788 28.6827 194.068 27.936C195.348 27.168 196.788 26.784 198.388 26.784C199.988 26.784 201.428 27.168 202.708 27.936C203.988 28.6827 205.001 29.7173 205.748 31.04C206.495 32.3413 206.868 33.856 206.868 35.584ZM203.668 35.584C203.668 34.4107 203.433 33.3973 202.964 32.544C202.495 31.6693 201.855 30.9867 201.044 30.496C200.255 29.984 199.369 29.728 198.388 29.728C197.407 29.728 196.511 29.984 195.7 30.496C194.889 30.9867 194.249 31.6693 193.78 32.544C193.311 33.3973 193.076 34.4107 193.076 35.584C193.076 36.7147 193.311 37.7173 193.78 38.592C194.249 39.4667 194.889 40.1493 195.7 40.64C196.511 41.1307 197.407 41.376 198.388 41.376C199.369 41.376 200.255 41.1307 201.044 40.64C201.855 40.1493 202.495 39.4667 202.964 38.592C203.433 37.7173 203.668 36.7147 203.668 35.584ZM209.498 41.376C209.306 41.0773 209.221 40.736 209.242 40.352C209.263 39.9467 209.487 39.6053 209.914 39.328C210.213 39.136 210.522 39.0613 210.842 39.104C211.183 39.1253 211.503 39.2853 211.802 39.584C212.399 40.2453 213.061 40.768 213.786 41.152C214.533 41.536 215.429 41.728 216.474 41.728C216.901 41.7067 217.338 41.6427 217.786 41.536C218.234 41.408 218.618 41.1947 218.938 40.896C219.258 40.576 219.418 40.1173 219.418 39.52C219.418 38.9867 219.247 38.56 218.906 38.24C218.565 37.92 218.117 37.664 217.562 37.472C217.007 37.2587 216.41 37.0667 215.77 36.896C215.087 36.704 214.394 36.4907 213.69 36.256C213.007 36.0213 212.389 35.7227 211.834 35.36C211.279 34.976 210.821 34.4853 210.458 33.888C210.117 33.2907 209.946 32.5547 209.946 31.68C209.946 30.6773 210.223 29.8133 210.778 29.088C211.354 28.3627 212.09 27.7973 212.986 27.392C213.903 26.9867 214.895 26.784 215.962 26.784C216.581 26.784 217.231 26.8693 217.914 27.04C218.597 27.1893 219.258 27.4347 219.898 27.776C220.538 28.1173 221.093 28.5653 221.562 29.12C221.775 29.3973 221.893 29.728 221.914 30.112C221.957 30.496 221.786 30.8373 221.402 31.136C221.146 31.3493 220.837 31.4453 220.474 31.424C220.111 31.4027 219.813 31.2853 219.578 31.072C219.173 30.56 218.65 30.1653 218.01 29.888C217.37 29.5893 216.645 29.44 215.834 29.44C215.429 29.44 215.002 29.504 214.554 29.632C214.127 29.7387 213.765 29.9413 213.466 30.24C213.167 30.5387 213.018 30.976 213.018 31.552C213.018 32.0853 213.189 32.512 213.53 32.832C213.893 33.152 214.362 33.4187 214.938 33.632C215.514 33.8453 216.143 34.0373 216.826 34.208C217.487 34.3787 218.138 34.5813 218.778 34.816C219.439 35.0507 220.026 35.36 220.538 35.744C221.071 36.1067 221.498 36.5867 221.818 37.184C222.159 37.76 222.33 38.496 222.33 39.392C222.33 40.4373 222.021 41.3333 221.402 42.08C220.805 42.8053 220.037 43.36 219.098 43.744C218.181 44.128 217.21 44.32 216.186 44.32C214.97 44.32 213.754 44.1067 212.538 43.68C211.343 43.232 210.33 42.464 209.498 41.376Z" fill="white"/>
</g>
<path d="M27.0922 15.9945C27.0922 15.9945 6.29767 22.4579 4.67647 24.9527C3.05528 27.4474 0.261416 32.0684 0.00742907 41.9629C-0.197922 49.9001 3.7632 70.3112 23.2338 70.9877C43.115 71.6824 50.5185 57.0401 54.0689 47.9732C57.2681 39.7943 57.214 30.4012 59.2405 26.0883C61.267 21.7753 63.0936 18.0362 62.9963 13.1615C62.899 8.28678 61.2724 4.0886 58.4299 2.04689C55.5874 0.00518425 53.1556 0.343455 51.9397 0.00518448C50.7238 -0.333086 27.0922 15.9945 27.0922 15.9945Z" fill="#AFB42A"/>
<path d="M29.7192 8.59902C21.1448 12.5955 9.74979 16.3608 4.3075 25.0411C-0.608286 32.8759 -2.24688 42.6208 4.40958 54.0384C10.4858 64.4645 26.6837 68.9111 38.7986 59.0629C49.8927 50.0419 50.8974 36.7994 54.2283 28.0035C57.5592 19.2076 64.5649 7.65008 56.1462 1.96864C47.1689 -4.07778 36.4938 5.44198 29.7192 8.59902Z" fill="#AFB42A"/>
<path d="M54.6006 4.63847C50.4791 2.08525 45.2227 3.21613 39.4124 6.28232C33.6021 9.34852 29.1167 11.6453 27.0804 12.4089C25.0387 13.1725 7.69462 19.9928 4.34962 29.0398C1.59651 36.4779 2.3133 46.2186 9.54632 53.3304C16.7793 60.4421 35.0302 60.0049 42.0623 49.279C49.0944 38.5532 49.3985 29.9142 50.9298 26.0844C52.4611 22.2545 55.7953 16.6468 56.7401 13.6097C57.8587 10.0014 57.2506 6.28232 54.6006 4.63847Z" fill="#FFF69D"/>
<path d="M35.533 25.0335C32.4691 20.7767 20.7946 22.12 16.7773 28.8425C12.7601 35.565 14.4322 41.0277 16.395 43.971C18.7859 47.5591 25.2961 50.8069 31.2251 45.989C37.1542 41.171 38.8926 29.7022 35.533 25.0335Z" fill="#A75E48"/>
<defs>
<filter id="filter0_d_249_713" x="72.1117" y="20.3201" width="150.618" height="25.4" filterUnits="userSpaceOnUse" color-interpolation-filters="sRGB">
<feFlood flood-opacity="0" result="BackgroundImageFix"/>
<feColorMatrix in="SourceAlpha" type="matrix" values="0 0 0 0 0 0 0 0 0 0 0 0 0 0 0 0 0 0 127 0" result="hardAlpha"/>
<feOffset dy="1"/>
<feGaussianBlur stdDeviation="0.2"/>
<feComposite in2="hardAlpha" operator="out"/>
<feColorMatrix type="matrix" values="0 0 0 0 0 0 0 0 0 0 0 0 0 0 0 0 0 0 0.27 0"/>
<feBlend mode="normal" in2="BackgroundImageFix" result="effect1_dropShadow_249_713"/>
<feBlend mode="normal" in="SourceGraphic" in2="effect1_dropShadow_249_713" result="shape"/>
</filter>
</defs>
</svg>
