<svg width="7" height="7" viewBox="0 0 7 7" fill="none" xmlns="http://www.w3.org/2000/svg">
<path d="M3.45435 3.16638C3.87424 3.16638 4.27693 2.99958 4.57384 2.70268C4.87074 2.40577 5.03754 2.00308 5.03754 1.58319C5.03754 1.1633 4.87074 0.760612 4.57384 0.463706C4.27693 0.1668 3.87424 0 3.45435 0C3.03446 0 2.63177 0.1668 2.33487 0.463706C2.03796 0.760612 1.87116 1.1633 1.87116 1.58319C1.87116 2.00308 2.03796 2.40577 2.33487 2.70268C2.63177 2.99958 3.03446 3.16638 3.45435 3.16638ZM3.45435 3.86197C1.3494 3.86197 0 5.02357 0 5.58914V6.64523H6.9087V5.58914C6.9087 4.90518 5.63122 3.86197 3.45435 3.86197Z" fill="#5F5F5F"/>
</svg>
