<svg width="4" height="7" viewBox="0 0 4 7" fill="none" xmlns="http://www.w3.org/2000/svg">
<path d="M2.49486 0.437883L2.06642 3.03495L3.61877 3.04087L1.5056 6.56146L1.93423 3.70437L0.381879 3.69802L2.49486 0.437883ZM2.49505 0C2.4848 0 2.47454 0.000438102 2.46447 0.00131431C2.39743 0.00744774 2.35299 0.0335148 2.30039 0.0742584C2.27114 0.0966016 2.24436 0.124202 2.22081 0.155964C2.21379 0.165384 2.20733 0.175241 2.20125 0.185317L0.0728893 3.43428C-0.0110526 3.56725 -0.023587 3.74249 0.0409838 3.88903C0.105554 4.03558 0.235835 4.12846 0.37884 4.12977L1.47521 4.13897L1.13052 6.48151C1.09785 6.68281 1.19091 6.88346 1.35462 6.96429C1.40343 6.98839 1.4547 7 1.50522 7C1.62468 7 1.72267 6.9356 1.79636 6.81928L3.92719 3.29869C4.01113 3.16573 4.02348 2.99027 3.9591 2.84394C3.89453 2.6974 3.76424 2.60452 3.62124 2.60342L2.52487 2.60123L2.86595 0.541714C2.87317 0.508637 2.87678 0.474246 2.87678 0.43876C2.87678 0.201746 2.71326 0.008543 2.50853 0.000876205C2.50398 0.000657154 2.49961 0.000657154 2.49505 0.000657154V0Z" fill="#5F5F5F"/>
</svg>
