<svg width="33" height="33" viewBox="0 0 33 33" fill="none" xmlns="http://www.w3.org/2000/svg">
<path d="M24.2188 21.3329C26.2158 18.6074 27.1103 15.2283 26.7232 11.8715C26.3361 8.51479 24.6961 5.428 22.1312 3.22872C19.5662 1.02943 16.2656 -0.120151 12.8896 0.0099507C9.51359 0.140052 6.31118 1.54025 3.92307 3.93041C1.53496 6.32057 0.137251 9.52442 0.00958311 12.901C-0.118085 16.2776 1.0337 19.5778 3.23451 22.1416C5.43532 24.7053 8.52284 26.3434 11.8794 26.7281C15.2359 27.1128 18.6139 26.2158 21.3376 24.2166H21.3355C21.396 24.2991 21.4634 24.3781 21.5377 24.4538L29.478 32.3952C29.8647 32.7823 30.3893 32.9998 30.9364 33C31.4835 33.0002 32.0083 32.783 32.3953 32.3962C32.7823 32.0095 32.9998 31.4848 33 30.9376C33.0002 30.3904 32.783 29.8656 32.3963 29.4785L24.456 21.5371C24.3823 21.4624 24.303 21.3955 24.2188 21.3329ZM24.7509 13.4038C24.7509 14.8936 24.4575 16.3689 23.8875 17.7453C23.3174 19.1218 22.4819 20.3724 21.4285 21.4259C20.3752 22.4794 19.1247 23.315 17.7485 23.8852C16.3723 24.4553 14.8972 24.7487 13.4076 24.7487C11.918 24.7487 10.4429 24.4553 9.0667 23.8852C7.69046 23.315 6.43998 22.4794 5.38666 21.4259C4.33333 20.3724 3.49779 19.1218 2.92773 17.7453C2.35768 16.3689 2.06427 14.8936 2.06427 13.4038C2.06427 10.395 3.25937 7.50933 5.38666 5.38174C7.51394 3.25416 10.3992 2.05889 13.4076 2.05889C16.416 2.05889 19.3013 3.25416 21.4285 5.38174C23.5558 7.50933 24.7509 10.395 24.7509 13.4038Z" fill="white"/>
</svg>
